<svg width="32" height="32" viewBox="0 0 32 32" fill="none" xmlns="http://www.w3.org/2000/svg">
<path d="M23.068 14H30.932C31.027 14.0001 31.12 14.0272 31.2002 14.0782C31.2803 14.1292 31.3443 14.202 31.3846 14.288C31.4249 14.374 31.4398 14.4698 31.4277 14.564C31.4155 14.6582 31.3768 14.747 31.316 14.82L27.384 19.54C27.3371 19.5963 27.2783 19.6416 27.212 19.6727C27.1456 19.7037 27.0733 19.7198 27 19.7198C26.9267 19.7198 26.8543 19.7037 26.788 19.6727C26.7216 19.6416 26.6629 19.5963 26.616 19.54L22.684 14.82C22.6232 14.747 22.5844 14.6582 22.5723 14.564C22.5601 14.4698 22.5751 14.374 22.6154 14.288C22.6557 14.202 22.7196 14.1292 22.7998 14.0782C22.88 14.0272 22.973 14.0001 23.068 14ZM1.06799 18H8.93199C9.027 18 9.12003 17.9729 9.20019 17.9219C9.28035 17.8709 9.34432 17.7981 9.38461 17.7121C9.4249 17.6261 9.43985 17.5303 9.42769 17.4361C9.41554 17.3419 9.37679 17.253 9.31599 17.18L5.38399 12.46C5.33706 12.4038 5.27835 12.3585 5.21199 12.3274C5.14563 12.2964 5.07326 12.2803 4.99999 12.2803C4.92672 12.2803 4.85435 12.2964 4.78799 12.3274C4.72163 12.3585 4.66291 12.4038 4.61599 12.46L0.683989 17.18C0.623185 17.253 0.584437 17.3419 0.572284 17.4361C0.560131 17.5303 0.575076 17.6261 0.615368 17.7121C0.655659 17.7981 0.719631 17.8709 0.799791 17.9219C0.879951 17.9729 0.972982 18 1.06799 18Z" fill="white"/>
<path fill-rule="evenodd" clip-rule="evenodd" d="M16 5.99998C12.896 5.99998 10.12 7.41398 8.28602 9.63598C8.20412 9.74212 8.10172 9.83072 7.9849 9.8965C7.86808 9.96227 7.73922 10.0039 7.606 10.0189C7.47277 10.0338 7.33789 10.0219 7.20938 9.98369C7.08087 9.94549 6.96135 9.88185 6.85793 9.79654C6.75451 9.71123 6.6693 9.60599 6.60737 9.48709C6.54543 9.36818 6.50804 9.23804 6.49742 9.1044C6.48679 8.97075 6.50314 8.83633 6.54551 8.70914C6.58787 8.58194 6.65538 8.46456 6.74402 8.36398C8.2084 6.59103 10.1512 5.276 12.3413 4.57529C14.5315 3.87458 16.8768 3.81768 19.0984 4.41136C21.3199 5.00503 23.3242 6.2243 24.8728 7.92415C26.4215 9.624 27.4493 11.7329 27.834 14H25.8C25.339 11.7412 24.1117 9.71119 22.3258 8.25336C20.54 6.79554 18.3053 5.99951 16 5.99998ZM6.20002 18C6.57864 19.8492 7.47272 21.5536 8.77897 22.9163C10.0852 24.2789 11.7503 25.2442 13.5819 25.7005C15.4135 26.1569 17.3369 26.0858 19.1298 25.4954C20.9227 24.905 22.512 23.8194 23.714 22.364C23.7959 22.2578 23.8983 22.1692 24.0151 22.1035C24.132 22.0377 24.2608 21.9961 24.394 21.9811C24.5273 21.9661 24.6621 21.9781 24.7907 22.0163C24.9192 22.0545 25.0387 22.1181 25.1421 22.2034C25.2455 22.2887 25.3307 22.394 25.3927 22.5129C25.4546 22.6318 25.492 22.7619 25.5026 22.8956C25.5132 23.0292 25.4969 23.1636 25.4545 23.2908C25.4122 23.418 25.3447 23.5354 25.256 23.636C23.7916 25.4089 21.8488 26.724 19.6587 27.4247C17.4685 28.1254 15.1232 28.1823 12.9017 27.5886C10.6801 26.9949 8.67583 25.7757 7.12719 24.0758C5.57856 22.376 4.55075 20.2671 4.16602 18H6.20002Z" fill="white"/>
</svg>
