<svg width="32" height="32" viewBox="0 0 32 32" fill="none" xmlns="http://www.w3.org/2000/svg">
<path d="M16 4C18.87 4 21.2 6.33 21.2 9.2C21.2 12.07 18.87 14.4 16 14.4C13.13 14.4 10.8 12.07 10.8 9.2C10.8 6.33 13.13 4 16 4ZM4.8 7.6C6.79 7.6 8.4 9.21 8.4 11.2C8.4 13.19 6.79 14.8 4.8 14.8C2.81 14.8 1.2 13.19 1.2 11.2C1.2 9.21 2.81 7.6 4.8 7.6ZM0 24C0 20.465 2.865 17.6 6.4 17.6C7.04 17.6 7.66 17.695 8.245 17.87C6.6 19.71 5.6 22.14 5.6 24.8V25.6C5.6 26.17 5.72 26.71 5.935 27.2H1.6C0.715 27.2 0 26.485 0 25.6V24ZM26.065 27.2C26.28 26.71 26.4 26.17 26.4 25.6V24.8C26.4 22.14 25.4 19.71 23.755 17.87C24.34 17.695 24.96 17.6 25.6 17.6C29.135 17.6 32 20.465 32 24V25.6C32 26.485 31.285 27.2 30.4 27.2H26.065ZM23.6 11.2C23.6 9.21 25.21 7.6 27.2 7.6C29.19 7.6 30.8 9.21 30.8 11.2C30.8 13.19 29.19 14.8 27.2 14.8C25.21 14.8 23.6 13.19 23.6 11.2ZM8 24.8C8 20.38 11.58 16.8 16 16.8C20.42 16.8 24 20.38 24 24.8V25.6C24 26.485 23.285 27.2 22.4 27.2H9.6C8.715 27.2 8 26.485 8 25.6V24.8Z" fill="white"/>
</svg>
