<svg width="24" height="24" viewBox="0 0 24 24" fill="none" xmlns="http://www.w3.org/2000/svg">
<g clip-path="url(#clip0_13_75)">
<path d="M15.1005 1.30505C14.6967 0.891859 14.2145 0.56354 13.682 0.339383C13.1496 0.115227 12.5777 -0.000244141 12 -0.000244141C11.4223 -0.000244141 10.8504 0.115227 10.318 0.339383C9.78552 0.56354 9.30325 0.891859 8.8995 1.30505L7.9665 2.26205L6.6315 2.24555C6.05362 2.23871 5.48021 2.34749 4.94499 2.56548C4.40977 2.78348 3.92353 3.10629 3.51489 3.51494C3.10624 3.92359 2.78343 4.40982 2.56543 4.94504C2.34744 5.48026 2.23866 6.05367 2.2455 6.63155L2.2605 7.96655L1.3065 8.89955C0.893309 9.3033 0.564989 9.78557 0.340833 10.318C0.116676 10.8505 0.00120544 11.4223 0.00120544 12C0.00120544 12.5778 0.116676 13.1496 0.340833 13.6821C0.564989 14.2145 0.893309 14.6968 1.3065 15.1005L2.262 16.0336L2.2455 17.3685C2.23866 17.9464 2.34744 18.5198 2.56543 19.0551C2.78343 19.5903 3.10624 20.0765 3.51489 20.4852C3.92353 20.8938 4.40977 21.2166 4.94499 21.4346C5.48021 21.6526 6.05362 21.7614 6.6315 21.7545L7.9665 21.7395L8.8995 22.6935C9.30325 23.1067 9.78552 23.4351 10.318 23.6592C10.8504 23.8834 11.4223 23.9988 12 23.9988C12.5777 23.9988 13.1496 23.8834 13.682 23.6592C14.2145 23.4351 14.6967 23.1067 15.1005 22.6935L16.0335 21.738L17.3685 21.7545C17.9464 21.7614 18.5198 21.6526 19.055 21.4346C19.5902 21.2166 20.0765 20.8938 20.4851 20.4852C20.8938 20.0765 21.2166 19.5903 21.4346 19.0551C21.6526 18.5198 21.7613 17.9464 21.7545 17.3685L21.7395 16.0336L22.6935 15.1005C23.1067 14.6968 23.435 14.2145 23.6592 13.6821C23.8833 13.1496 23.9988 12.5778 23.9988 12C23.9988 11.4223 23.8833 10.8505 23.6592 10.318C23.435 9.78557 23.1067 9.3033 22.6935 8.89955L21.738 7.96655L21.7545 6.63155C21.7613 6.05367 21.6526 5.48026 21.4346 4.94504C21.2166 4.40982 20.8938 3.92359 20.4851 3.51494C20.0765 3.10629 19.5902 2.78348 19.055 2.56548C18.5198 2.34749 17.9464 2.23871 17.3685 2.24555L16.0335 2.26055L15.1005 1.30505ZM15.531 10.281L11.031 14.781C10.9613 14.8509 10.8786 14.9063 10.7874 14.9441C10.6963 14.9819 10.5986 15.0014 10.5 15.0014C10.4013 15.0014 10.3037 14.9819 10.2125 14.9441C10.1214 14.9063 10.0387 14.8509 9.969 14.781L7.719 12.531C7.64927 12.4613 7.59395 12.3785 7.55621 12.2874C7.51847 12.1963 7.49905 12.0987 7.49905 12C7.49905 11.9014 7.51847 11.8038 7.55621 11.7127C7.59395 11.6216 7.64927 11.5388 7.719 11.469C7.78873 11.3993 7.87151 11.344 7.96262 11.3063C8.05373 11.2685 8.15138 11.2491 8.25 11.2491C8.34861 11.2491 8.44626 11.2685 8.53737 11.3063C8.62848 11.344 8.71127 11.3993 8.781 11.469L10.5 13.1895L14.469 9.21905C14.6098 9.07822 14.8008 8.9991 15 8.9991C15.1992 8.9991 15.3902 9.07822 15.531 9.21905C15.6718 9.35988 15.7509 9.55089 15.7509 9.75005C15.7509 9.94921 15.6718 10.1402 15.531 10.281Z" fill="white"/>
</g>
<defs>
<clipPath id="clip0_13_75">
<rect width="24" height="24" fill="white"/>
</clipPath>
</defs>
</svg>
